# xmcd
#
# Track frame offsets:
#	150
#	15640
#	30732
#	44387
#	69187
#	83295
#	113942
#	132357
#	146380
#	160822
#	177062
#	211680
#
# Disc length: 3013 seconds
#
# Revision: 1
# Processed by: cddbd v1.4PL0 Copyright (c) Steve Scherf et al.
# Submitted via: audiograbber 1.81.01
#
DISCID=8e0bc30c
DTITLE=Barbara Blue Blues Band - Out Of The Blue
DYEAR=2000
DGENRE=Blues
TTITLE0=Smoke Rings In The Dark
TTITLE1=Tap On My Window
TTITLE2=No No Baby
TTITLE3=What To Do
TTITLE4=Old Man's Movin' Out
TTITLE5=Out Of The Rain
TTITLE6=Can't Stand The Rain
TTITLE7=Bed Bug Boogie
TTITLE8=I've Got To Have It
TTITLE9=Piece Of My Heart
TTITLE10=Sweet Love Blues
TTITLE11=Shake
EXTD=
EXTT0=
EXTT1=
EXTT2=
EXTT3=
EXTT4=
EXTT5=
EXTT6=
EXTT7=
EXTT8=
EXTT9=
EXTT10=
EXTT11=
PLAYORDER=
